<?xml version="1.0" encoding="UTF-8"?>
<!DOCTYPE svg PUBLIC "-//W3C//DTD SVG 1.1//EN" "http://www.w3.org/Graphics/SVG/1.1/DTD/svg11.dtd">
<svg xmlns="http://www.w3.org/2000/svg" version="1.1" width="215px" height="215px" style="shape-rendering:geometricPrecision; text-rendering:geometricPrecision; image-rendering:optimizeQuality; fill-rule:evenodd; clip-rule:evenodd" xmlns:xlink="http://www.w3.org/1999/xlink">
<g><path style="opacity:1" fill="#fefefe" d="M -0.5,-0.5 C 71.1667,-0.5 142.833,-0.5 214.5,-0.5C 214.5,27.1667 214.5,54.8333 214.5,82.5C 207.833,82.5 201.167,82.5 194.5,82.5C 194.5,84.1667 194.5,85.8333 194.5,87.5C 194.5,87.8333 194.5,88.1667 194.5,88.5C 193.768,89.8083 192.934,91.1416 192,92.5C 191.503,89.854 191.336,87.1873 191.5,84.5C 191.5,84.1667 191.5,83.8333 191.5,83.5C 187.514,82.8343 183.347,82.501 179,82.5C 174.443,82.5085 170.276,83.1752 166.5,84.5C 166.5,85.1667 166.5,85.8333 166.5,86.5C 165.143,85.4097 164.143,84.0764 163.5,82.5C 161.5,82.5 159.5,82.5 157.5,82.5C 156.833,86.8333 156.167,91.1667 155.5,95.5C 155.5,96.1667 155.5,96.8333 155.5,97.5C 154.249,104.423 152.749,111.423 151,118.5C 148.702,121.526 145.869,122.192 142.5,120.5C 141.883,120.389 141.383,120.056 141,119.5C 141.504,107.46 142.671,95.4602 144.5,83.5C 141.918,83.0254 139.918,83.6921 138.5,85.5C 137.343,90.7121 136.343,96.0454 135.5,101.5C 134.768,102.808 133.934,104.142 133,105.5C 132.667,104.833 132.333,104.167 132,103.5C 131.5,105.5 131,107.5 130.5,109.5C 132.643,112.463 133.643,115.796 133.5,119.5C 129.21,118.575 124.876,117.909 120.5,117.5C 120.181,115.25 120.681,113.25 122,111.5C 123.153,113.497 124.653,113.83 126.5,112.5C 125.372,111.738 124.205,111.071 123,110.5C 122.501,105.511 122.334,100.511 122.5,95.5C 122.966,90.9705 122.966,86.6372 122.5,82.5C 122.175,80.8684 121.175,79.8684 119.5,79.5C 117.422,80.7677 115.589,82.4344 114,84.5C 111.752,78.3947 110.919,72.0614 111.5,65.5C 108.428,65.1826 105.428,65.5159 102.5,66.5C 99.8464,67.9681 97.513,69.6348 95.5,71.5C 92.9116,73.5918 89.9116,74.9251 86.5,75.5C 85.1667,75.5 83.8333,75.5 82.5,75.5C 82.5,78.1667 82.5,80.8333 82.5,83.5C 80.7839,83.3713 79.1172,83.038 77.5,82.5C 75.1073,81.79 72.6073,81.1233 70,80.5C 67.2567,82.7879 64.4233,84.9545 61.5,87C 61.0698,87.9195 60.7365,88.7528 60.5,89.5C 57.8785,88.0478 56.2118,85.8812 55.5,83C 49.849,82.1919 44.349,81.0253 39,79.5C 37.115,80.9918 36.115,82.9918 36,85.5C 35.5017,88.8168 35.335,92.1501 35.5,95.5C 33.3972,99.2218 31.8972,103.222 31,107.5C 30.1381,103.573 29.6381,99.5732 29.5,95.5C 28.8333,99.8333 28.1667,104.167 27.5,108.5C 26.8302,106.709 26.1635,105.042 25.5,103.5C 25.1109,96.8303 24.6109,90.1637 24,83.5C 22.5998,82.8841 21.0998,82.5507 19.5,82.5C 17.6672,82.5854 16.3339,83.2521 15.5,84.5C 15.5,84.8333 15.5,85.1667 15.5,85.5C 13.5889,89.6696 11.9222,94.0029 10.5,98.5C 6.40238,107.116 3.06905,116.116 0.5,125.5C 0.166667,125.5 -0.166667,125.5 -0.5,125.5C -0.5,83.5 -0.5,41.5 -0.5,-0.5 Z"/></g>
<g><path style="opacity:1" fill="#7db9de" d="M 95.5,86.5 C 93.9382,86.7329 92.6049,87.3995 91.5,88.5C 91.8511,85.7623 92.5178,83.0956 93.5,80.5C 96.2947,79.5389 98.2947,77.7055 99.5,75C 98.4366,73.8118 97.1033,73.3118 95.5,73.5C 95.6567,74.8734 95.49,76.2068 95,77.5C 91.8717,76.058 89.0384,76.558 86.5,79C 87.448,79.4828 88.448,79.6495 89.5,79.5C 89.5,80.5 89.5,81.5 89.5,82.5C 87.0411,82.69 85.3745,81.69 84.5,79.5C 84.7329,77.9382 85.3995,76.6049 86.5,75.5C 89.9116,74.9251 92.9116,73.5918 95.5,71.5C 100.213,68.9772 105.213,67.3105 110.5,66.5C 110.5,71.8333 110.5,77.1667 110.5,82.5C 107.15,82.335 103.817,82.5017 100.5,83C 98.1192,83.2233 96.4525,84.39 95.5,86.5 Z"/></g>
<g><path style="opacity:1" fill="#7195c1" d="M 191.5,83.5 C 183.082,83.1981 174.748,83.5314 166.5,84.5C 170.276,83.1752 174.443,82.5085 179,82.5C 183.347,82.501 187.514,82.8343 191.5,83.5 Z"/></g>
<g><path style="opacity:1" fill="#799acd" d="M 214.5,82.5 C 214.5,84.1667 214.5,85.8333 214.5,87.5C 214.167,87.5 213.833,87.5 213.5,87.5C 213.5,86.1667 213.5,84.8333 213.5,83.5C 207.5,83.5 201.5,83.5 195.5,83.5C 195.768,85.099 195.434,86.4324 194.5,87.5C 194.5,85.8333 194.5,84.1667 194.5,82.5C 201.167,82.5 207.833,82.5 214.5,82.5 Z"/></g>
<g><path style="opacity:1" fill="#44b8ec" d="M 91.5,88.5 C 89.3757,90.0592 87.709,92.0592 86.5,94.5C 85.675,95.3857 84.675,95.719 83.5,95.5C 83.1786,89.9738 83.5119,84.6405 84.5,79.5C 85.3745,81.69 87.0411,82.69 89.5,82.5C 89.5,81.5 89.5,80.5 89.5,79.5C 88.448,79.6495 87.448,79.4828 86.5,79C 89.0384,76.558 91.8717,76.058 95,77.5C 95.49,76.2068 95.6567,74.8734 95.5,73.5C 97.1033,73.3118 98.4366,73.8118 99.5,75C 98.2947,77.7055 96.2947,79.5389 93.5,80.5C 92.5178,83.0956 91.8511,85.7623 91.5,88.5 Z"/></g>
<g><path style="opacity:1" fill="#0a4ca0" d="M 191.5,83.5 C 191.5,83.8333 191.5,84.1667 191.5,84.5C 190.549,85.9187 190.216,87.5853 190.5,89.5C 186.563,89.2065 182.73,89.5399 179,90.5C 178.16,102.555 176.826,114.555 175,126.5C 173.576,117.541 173.409,108.541 174.5,99.5C 174.5,98.1667 174.5,96.8333 174.5,95.5C 175.461,93.7354 175.795,91.7354 175.5,89.5C 172.5,89.5 169.5,89.5 166.5,89.5C 166.5,88.5 166.5,87.5 166.5,86.5C 166.5,85.8333 166.5,85.1667 166.5,84.5C 174.748,83.5314 183.082,83.1981 191.5,83.5 Z"/></g>
<g><path style="opacity:1" fill="#275186" d="M 15.5,85.5 C 15.572,89.6891 14.7387,93.6891 13,97.5C 12.3292,98.2524 11.4959,98.5858 10.5,98.5C 11.9222,94.0029 13.5889,89.6696 15.5,85.5 Z"/></g>
<g><path style="opacity:1" fill="#fcfdfd" d="M 77.5,82.5 C 65.1174,82.6217 60.4508,88.6217 63.5,100.5C 65.6286,105.15 68.7952,109.15 73,112.5C 73.2738,121.6 69.2738,123.934 61,119.5C 58.7017,121.304 58.035,123.637 59,126.5C 60.5843,127.861 62.4176,128.528 64.5,128.5C 65.9516,129.302 67.6183,129.802 69.5,130C 68.1118,130.889 68.2785,131.389 70,131.5C 71.7659,130.767 73.5992,130.433 75.5,130.5C 76.35,125.177 77.5167,125.177 79,130.5C 79.3076,129.692 79.8076,129.025 80.5,128.5C 81.2978,130.078 81.7978,131.744 82,133.5C 82.3826,132.944 82.8826,132.611 83.5,132.5C 89.1033,135.121 94.7699,135.121 100.5,132.5C 101.158,131.602 101.824,130.602 102.5,129.5C 104.722,131.369 107.055,131.702 109.5,130.5C 115.5,130.5 121.5,130.5 127.5,130.5C 127.5,131.5 127.5,132.5 127.5,133.5C 129.606,133.321 131.272,132.321 132.5,130.5C 132.162,128.345 132.162,126.011 132.5,123.5C 133.5,123.5 134.5,123.5 135.5,123.5C 136.272,124.694 137.272,125.694 138.5,126.5C 150.145,131.201 156.979,127.201 159,114.5C 159.788,107.486 160.621,100.486 161.5,93.5C 162.402,90.0032 163.069,86.3366 163.5,82.5C 164.143,84.0764 165.143,85.4097 166.5,86.5C 166.5,87.5 166.5,88.5 166.5,89.5C 168.948,90.4731 171.615,90.8064 174.5,90.5C 174.5,92.1667 174.5,93.8333 174.5,95.5C 174.5,96.8333 174.5,98.1667 174.5,99.5C 172.314,108.946 170.647,118.613 169.5,128.5C 171.792,128.756 173.959,128.423 176,127.5C 178.067,115.196 179.901,102.862 181.5,90.5C 184.713,90.81 187.713,90.4767 190.5,89.5C 190.216,87.5853 190.549,85.9187 191.5,84.5C 191.336,87.1873 191.503,89.854 192,92.5C 192.934,91.1416 193.768,89.8083 194.5,88.5C 192.014,101.721 190.347,115.054 189.5,128.5C 196.022,128.823 202.355,128.49 208.5,127.5C 209.468,125.393 209.802,123.059 209.5,120.5C 205.167,120.5 200.833,120.5 196.5,120.5C 196.833,117.167 197.167,113.833 197.5,110.5C 201.717,108.964 206.05,107.964 210.5,107.5C 210.5,105.5 210.5,103.5 210.5,101.5C 206.833,101.5 203.167,101.5 199.5,101.5C 199.5,97.8333 199.5,94.1667 199.5,90.5C 204.167,90.5 208.833,90.5 213.5,90.5C 213.5,89.5 213.5,88.5 213.5,87.5C 213.833,87.5 214.167,87.5 214.5,87.5C 214.5,129.833 214.5,172.167 214.5,214.5C 142.833,214.5 71.1667,214.5 -0.5,214.5C -0.5,185.833 -0.5,157.167 -0.5,128.5C 2.0593,128.802 4.39263,128.468 6.5,127.5C 7.67788,123.796 9.01122,120.13 10.5,116.5C 14.1073,115.511 17.774,115.177 21.5,115.5C 20.9106,119.971 21.5772,123.971 23.5,127.5C 24.8333,127.5 26.1667,127.5 27.5,127.5C 26.8333,119.5 26.1667,111.5 25.5,103.5C 26.1635,105.042 26.8302,106.709 27.5,108.5C 28.1667,104.167 28.8333,99.8333 29.5,95.5C 29.6381,99.5732 30.1381,103.573 31,107.5C 31.8972,103.222 33.3972,99.2218 35.5,95.5C 35.335,92.1501 35.5017,88.8168 36,85.5C 36.115,82.9918 37.115,80.9918 39,79.5C 44.349,81.0253 49.849,82.1919 55.5,83C 56.2118,85.8812 57.8785,88.0478 60.5,89.5C 60.7365,88.7528 61.0698,87.9195 61.5,87C 64.4233,84.9545 67.2567,82.7879 70,80.5C 72.6073,81.1233 75.1073,81.79 77.5,82.5 Z"/></g>
<g><path style="opacity:1" fill="#265293" d="M 77.5,82.5 C 79.1172,83.038 80.7839,83.3713 82.5,83.5C 82.7406,85.8984 82.0739,87.8984 80.5,89.5C 80.5,87.8333 80.5,86.1667 80.5,84.5C 77.5071,83.8654 74.5071,83.6987 71.5,84C 70.1487,85.6171 68.482,86.7838 66.5,87.5C 65.0165,90.4109 65.3498,93.0775 67.5,95.5C 68.1818,94.7573 68.8485,94.0906 69.5,93.5C 69.7259,98.5841 72.2259,102.251 77,104.5C 78.0945,106.078 78.9278,107.745 79.5,109.5C 78.448,109.649 77.448,109.483 76.5,109C 72.6569,104.326 68.6569,99.8257 64.5,95.5C 63.5481,97.0453 63.2148,98.712 63.5,100.5C 60.4508,88.6217 65.1174,82.6217 77.5,82.5 Z"/></g>
<g><path style="opacity:1" fill="#658ab6" d="M 166.5,89.5 C 169.5,89.5 172.5,89.5 175.5,89.5C 175.795,91.7354 175.461,93.7354 174.5,95.5C 174.5,93.8333 174.5,92.1667 174.5,90.5C 171.615,90.8064 168.948,90.4731 166.5,89.5 Z"/></g>
<g><path style="opacity:1" fill="#124b9d" d="M 80.5,89.5 C 80.3036,91.6456 79.3036,91.8122 77.5,90C 73.4942,88.5793 70.8276,89.746 69.5,93.5C 68.8485,94.0906 68.1818,94.7573 67.5,95.5C 65.3498,93.0775 65.0165,90.4109 66.5,87.5C 68.482,86.7838 70.1487,85.6171 71.5,84C 74.5071,83.6987 77.5071,83.8654 80.5,84.5C 80.5,86.1667 80.5,87.8333 80.5,89.5 Z"/></g>
<g><path style="opacity:1" fill="#365a8d" d="M 163.5,82.5 C 163.069,86.3366 162.402,90.0032 161.5,93.5C 161.82,90.1016 161.487,86.7683 160.5,83.5C 158.538,87.5595 156.871,91.5595 155.5,95.5C 156.167,91.1667 156.833,86.8333 157.5,82.5C 159.5,82.5 161.5,82.5 163.5,82.5 Z"/></g>
<g><path style="opacity:1" fill="#7fa7d4" d="M 117.5,89.5 C 120.036,94.6815 120.036,100.015 117.5,105.5C 117.719,100.822 117.385,96.1555 116.5,91.5C 116.833,90.8333 117.167,90.1667 117.5,89.5 Z"/></g>
<g><path style="opacity:1" fill="#1e5198" d="M 25.5,103.5 C 26.1667,111.5 26.8333,119.5 27.5,127.5C 26.1667,127.5 24.8333,127.5 23.5,127.5C 23.3357,120.798 23.669,114.131 24.5,107.5C 22.7839,107.629 21.1172,107.962 19.5,108.5C 19.6661,102.824 19.4994,97.1569 19,91.5C 17.5252,94.1218 16.3586,96.7884 15.5,99.5C 15.2035,96.2761 15.8702,93.2761 17.5,90.5C 18.2739,89.2888 19.1072,89.2888 20,90.5C 21.2362,97.1013 22.0695,96.9347 22.5,90C 22.1667,88.1667 21.8333,86.3333 21.5,84.5C 19.5184,85.6225 17.5184,85.6225 15.5,84.5C 16.3339,83.2521 17.6672,82.5854 19.5,82.5C 21.0998,82.5507 22.5998,82.8841 24,83.5C 24.6109,90.1637 25.1109,96.8303 25.5,103.5 Z"/></g>
<g><path style="opacity:1" fill="#ebf5f8" d="M 43.5,89.5 C 48.246,88.9281 50.9127,90.9281 51.5,95.5C 50.3994,96.8484 49.3994,98.3484 48.5,100C 47.552,100.483 46.552,100.649 45.5,100.5C 44.5,100.5 43.5,100.5 42.5,100.5C 42.5,98.8333 42.5,97.1667 42.5,95.5C 42.2053,93.2646 42.5386,91.2646 43.5,89.5 Z"/></g>
<g><path style="opacity:1" fill="#064ca8" d="M 199.5,101.5 C 199.62,102.586 200.287,103.253 201.5,103.5C 203.453,102.844 205.453,102.511 207.5,102.5C 207.5,104.167 207.5,105.833 207.5,107.5C 203.958,107.187 200.625,107.521 197.5,108.5C 196.5,108.5 195.5,108.5 194.5,108.5C 194.965,100.479 195.632,92.4793 196.5,84.5C 200.846,84.3343 205.179,84.501 209.5,85C 209.957,85.414 210.291,85.914 210.5,86.5C 206.826,87.2325 203.159,87.8992 199.5,88.5C 198.189,92.9838 198.189,97.3171 199.5,101.5 Z"/></g>
<g><path style="opacity:1" fill="#91baed" d="M 42.5,95.5 C 42.5,97.1667 42.5,98.8333 42.5,100.5C 43.5,100.5 44.5,100.5 45.5,100.5C 45.5,100.833 45.5,101.167 45.5,101.5C 44.1667,101.5 42.8333,101.5 41.5,101.5C 41.2053,99.2646 41.5386,97.2646 42.5,95.5 Z"/></g>
<g><path style="opacity:1" fill="#244e90" d="M 54.5,108.5 C 52.9826,108.489 51.8159,107.823 51,106.5C 50.6667,104.5 50.3333,102.5 50,100.5C 48.6439,101.38 47.1439,101.714 45.5,101.5C 45.5,101.167 45.5,100.833 45.5,100.5C 46.552,100.649 47.552,100.483 48.5,100C 49.3994,98.3484 50.3994,96.8484 51.5,95.5C 50.9127,90.9281 48.246,88.9281 43.5,89.5C 46.2869,88.5233 49.2869,88.19 52.5,88.5C 52.67,87.1779 52.3366,86.0113 51.5,85C 47.5,84.3333 43.5,84.3333 39.5,85C 38.9108,88.7041 37.9108,92.2041 36.5,95.5C 36.1144,82.0927 42.1144,78.5927 54.5,85C 59.0777,92.2961 58.0777,98.6294 51.5,104C 53.1412,105.129 54.1412,106.629 54.5,108.5 Z"/></g>
<g><path style="opacity:1" fill="#034bae" d="M 51.5,95.5 C 53.0968,94.2627 54.2635,92.596 55,90.5C 55.6377,91.6086 56.1377,92.7753 56.5,94C 55.2576,95.6512 54.4243,97.4845 54,99.5C 53.586,99.9574 53.086,100.291 52.5,100.5C 51.5481,98.9547 51.2148,97.288 51.5,95.5 Z"/></g>
<g><path style="opacity:1" fill="#e6f5fa" d="M 19.5,108.5 C 17.5,108.5 15.5,108.5 13.5,108.5C 14.01,105.461 14.6766,102.461 15.5,99.5C 16.3586,96.7884 17.5252,94.1218 19,91.5C 19.4994,97.1569 19.6661,102.824 19.5,108.5 Z"/></g>
<g><path style="opacity:1" fill="#174982" d="M 199.5,101.5 C 203.167,101.5 206.833,101.5 210.5,101.5C 210.5,103.5 210.5,105.5 210.5,107.5C 209.5,107.5 208.5,107.5 207.5,107.5C 207.5,105.833 207.5,104.167 207.5,102.5C 205.453,102.511 203.453,102.844 201.5,103.5C 200.287,103.253 199.62,102.586 199.5,101.5 Z"/></g>
<g><path style="opacity:1" fill="#124d9c" d="M 43.5,89.5 C 42.5386,91.2646 42.2053,93.2646 42.5,95.5C 41.5386,97.2646 41.2053,99.2646 41.5,101.5C 42.8333,101.5 44.1667,101.5 45.5,101.5C 47.1439,101.714 48.6439,101.38 50,100.5C 50.3333,102.5 50.6667,104.5 51,106.5C 51.8159,107.823 52.9826,108.489 54.5,108.5C 54.631,109.239 54.4643,109.906 54,110.5C 52.9887,109.663 51.8221,109.33 50.5,109.5C 50.665,112.85 50.4983,116.183 50,119.5C 47.4507,120.59 46.6174,122.257 47.5,124.5C 53.0018,121.817 55.6684,117.484 55.5,111.5C 56.5315,118.265 54.1982,123.432 48.5,127C 47.2068,127.49 45.8734,127.657 44.5,127.5C 42.8333,127.5 41.1667,127.5 39.5,127.5C 39.9492,125.023 39.2825,123.023 37.5,121.5C 36.8076,122.025 36.3076,122.692 36,123.5C 35.9428,120.149 35.1094,117.149 33.5,114.5C 34.2862,108.186 34.9529,101.853 35.5,95.5C 35.8333,95.5 36.1667,95.5 36.5,95.5C 37.9108,92.2041 38.9108,88.7041 39.5,85C 43.5,84.3333 47.5,84.3333 51.5,85C 52.3366,86.0113 52.67,87.1779 52.5,88.5C 49.2869,88.19 46.2869,88.5233 43.5,89.5 Z"/></g>
<g><path style="opacity:1" fill="#35588e" d="M 138.5,85.5 C 138.079,95.39 137.079,105.223 135.5,115C 136.203,118.936 137.203,122.77 138.5,126.5C 137.272,125.694 136.272,124.694 135.5,123.5C 134.353,116.196 134.353,108.862 135.5,101.5C 136.343,96.0454 137.343,90.7121 138.5,85.5 Z"/></g>
<g><path style="opacity:1" fill="#7197c5" d="M 207.5,107.5 C 208.5,107.5 209.5,107.5 210.5,107.5C 206.05,107.964 201.717,108.964 197.5,110.5C 197.5,109.833 197.5,109.167 197.5,108.5C 200.625,107.521 203.958,107.187 207.5,107.5 Z"/></g>
<g><path style="opacity:1" fill="#27529d" d="M 213.5,87.5 C 213.5,88.5 213.5,89.5 213.5,90.5C 208.833,90.5 204.167,90.5 199.5,90.5C 199.5,94.1667 199.5,97.8333 199.5,101.5C 198.189,97.3171 198.189,92.9838 199.5,88.5C 203.159,87.8992 206.826,87.2325 210.5,86.5C 210.291,85.914 209.957,85.414 209.5,85C 205.179,84.501 200.846,84.3343 196.5,84.5C 195.632,92.4793 194.965,100.479 194.5,108.5C 195.5,108.5 196.5,108.5 197.5,108.5C 197.5,109.167 197.5,109.833 197.5,110.5C 197.167,113.833 196.833,117.167 196.5,120.5C 200.298,121.483 204.298,121.817 208.5,121.5C 208.5,123.5 208.5,125.5 208.5,127.5C 202.355,128.49 196.022,128.823 189.5,128.5C 190.347,115.054 192.014,101.721 194.5,88.5C 194.5,88.1667 194.5,87.8333 194.5,87.5C 195.434,86.4324 195.768,85.099 195.5,83.5C 201.5,83.5 207.5,83.5 213.5,83.5C 213.5,84.8333 213.5,86.1667 213.5,87.5 Z"/></g>
<g><path style="opacity:1" fill="#27509a" d="M 122.5,82.5 C 122.966,86.6372 122.966,90.9705 122.5,95.5C 120.614,102.239 119.614,109.239 119.5,116.5C 118.549,117.919 118.216,119.585 118.5,121.5C 122.5,121.5 126.5,121.5 130.5,121.5C 130.5,123.5 130.5,125.5 130.5,127.5C 124.355,128.49 118.022,128.823 111.5,128.5C 111.534,121.545 112.867,114.879 115.5,108.5C 114.303,102.649 114.636,96.982 116.5,91.5C 117.385,96.1555 117.719,100.822 117.5,105.5C 120.036,100.015 120.036,94.6815 117.5,89.5C 117.5,87.1667 117.5,84.8333 117.5,82.5C 119.167,82.5 120.833,82.5 122.5,82.5 Z"/></g>
<g><path style="opacity:1" fill="#f2f8f7" d="M 40.5,107.5 C 49.9497,107.946 51.9497,112.112 46.5,120C 44.3225,121.202 41.9892,121.702 39.5,121.5C 39.4372,116.797 39.7705,112.13 40.5,107.5 Z"/></g>
<g><path style="opacity:1" fill="#2e5392" d="M 190.5,89.5 C 187.713,90.4767 184.713,90.81 181.5,90.5C 179.901,102.862 178.067,115.196 176,127.5C 173.959,128.423 171.792,128.756 169.5,128.5C 170.647,118.613 172.314,108.946 174.5,99.5C 173.409,108.541 173.576,117.541 175,126.5C 176.826,114.555 178.16,102.555 179,90.5C 182.73,89.5399 186.563,89.2065 190.5,89.5 Z"/></g>
<g><path style="opacity:1" fill="#0c4db0" d="M 54.5,108.5 C 55.404,109.209 55.7373,110.209 55.5,111.5C 55.6684,117.484 53.0018,121.817 47.5,124.5C 46.6174,122.257 47.4507,120.59 50,119.5C 50.4983,116.183 50.665,112.85 50.5,109.5C 51.8221,109.33 52.9887,109.663 54,110.5C 54.4643,109.906 54.631,109.239 54.5,108.5 Z"/></g>
<g><path style="opacity:1" fill="#144c9e" d="M 142.5,120.5 C 143.649,123.153 145.649,124.32 148.5,124C 150.7,121.766 152.533,119.266 154,116.5C 154.651,110.173 155.151,103.84 155.5,97.5C 155.5,96.8333 155.5,96.1667 155.5,95.5C 156.871,91.5595 158.538,87.5595 160.5,83.5C 161.487,86.7683 161.82,90.1016 161.5,93.5C 160.621,100.486 159.788,107.486 159,114.5C 156.979,127.201 150.145,131.201 138.5,126.5C 137.203,122.77 136.203,118.936 135.5,115C 137.079,105.223 138.079,95.39 138.5,85.5C 139.918,83.6921 141.918,83.0254 144.5,83.5C 142.671,95.4602 141.504,107.46 141,119.5C 141.383,120.056 141.883,120.389 142.5,120.5 Z"/></g>
<g><path style="opacity:1" fill="#365d9c" d="M 155.5,97.5 C 155.151,103.84 154.651,110.173 154,116.5C 152.533,119.266 150.7,121.766 148.5,124C 145.649,124.32 143.649,123.153 142.5,120.5C 145.869,122.192 148.702,121.526 151,118.5C 152.749,111.423 154.249,104.423 155.5,97.5 Z"/></g>
<g><path style="opacity:1" fill="#7495bf" d="M 196.5,120.5 C 200.833,120.5 205.167,120.5 209.5,120.5C 209.802,123.059 209.468,125.393 208.5,127.5C 208.5,125.5 208.5,123.5 208.5,121.5C 204.298,121.817 200.298,121.483 196.5,120.5 Z"/></g>
<g><path style="opacity:1" fill="#1b4ea3" d="M 15.5,84.5 C 17.5184,85.6225 19.5184,85.6225 21.5,84.5C 21.8333,86.3333 22.1667,88.1667 22.5,90C 22.0695,96.9347 21.2362,97.1013 20,90.5C 19.1072,89.2888 18.2739,89.2888 17.5,90.5C 15.8702,93.2761 15.2035,96.2761 15.5,99.5C 14.6766,102.461 14.01,105.461 13.5,108.5C 15.5,108.5 17.5,108.5 19.5,108.5C 21.1172,107.962 22.7839,107.629 24.5,107.5C 23.669,114.131 23.3357,120.798 23.5,127.5C 21.5772,123.971 20.9106,119.971 21.5,115.5C 17.774,115.177 14.1073,115.511 10.5,116.5C 9.01122,120.13 7.67788,123.796 6.5,127.5C 3.91791,127.975 1.91791,127.308 0.5,125.5C 3.06905,116.116 6.40238,107.116 10.5,98.5C 11.4959,98.5858 12.3292,98.2524 13,97.5C 14.7387,93.6891 15.572,89.6891 15.5,85.5C 15.5,85.1667 15.5,84.8333 15.5,84.5 Z"/></g>
<g><path style="opacity:1" fill="#0c4ba4" d="M 33.5,114.5 C 35.1094,117.149 35.9428,120.149 36,123.5C 36.3076,122.692 36.8076,122.025 37.5,121.5C 39.2825,123.023 39.9492,125.023 39.5,127.5C 37.1667,127.5 34.8333,127.5 32.5,127.5C 32.5,126.167 32.5,124.833 32.5,123.5C 32.3677,120.43 32.701,117.43 33.5,114.5 Z"/></g>
<g><path style="opacity:1" fill="#1f4e9c" d="M 79.5,109.5 C 81.9893,117.858 79.3227,124.025 71.5,128C 69.1902,128.497 66.8568,128.663 64.5,128.5C 62.4176,128.528 60.5843,127.861 59,126.5C 58.035,123.637 58.7017,121.304 61,119.5C 69.2738,123.934 73.2738,121.6 73,112.5C 68.7952,109.15 65.6286,105.15 63.5,100.5C 63.2148,98.712 63.5481,97.0453 64.5,95.5C 68.6569,99.8257 72.6569,104.326 76.5,109C 77.448,109.483 78.448,109.649 79.5,109.5 Z"/></g>
<g><path style="opacity:1" fill="#7c8aa2" d="M -0.5,125.5 C -0.166667,125.5 0.166667,125.5 0.5,125.5C 1.91791,127.308 3.91791,127.975 6.5,127.5C 4.39263,128.468 2.0593,128.802 -0.5,128.5C -0.5,127.5 -0.5,126.5 -0.5,125.5 Z"/></g>
<g><path style="opacity:1" fill="#47627d" d="M 32.5,123.5 C 32.5,124.833 32.5,126.167 32.5,127.5C 34.8333,127.5 37.1667,127.5 39.5,127.5C 41.1667,127.5 42.8333,127.5 44.5,127.5C 40.3656,128.485 36.0323,128.818 31.5,128.5C 31.2155,126.585 31.5489,124.919 32.5,123.5 Z"/></g>
<g><path style="opacity:1" fill="#ecf8fb" d="M 122.5,82.5 C 120.833,82.5 119.167,82.5 117.5,82.5C 117.5,84.8333 117.5,87.1667 117.5,89.5C 117.167,90.1667 116.833,90.8333 116.5,91.5C 114.636,96.982 114.303,102.649 115.5,108.5C 112.867,114.879 111.534,121.545 111.5,128.5C 118.022,128.823 124.355,128.49 130.5,127.5C 131.468,125.393 131.802,123.059 131.5,120.5C 127.5,120.5 123.5,120.5 119.5,120.5C 119.5,119.167 119.5,117.833 119.5,116.5C 119.614,109.239 120.614,102.239 122.5,95.5C 122.334,100.511 122.501,105.511 123,110.5C 124.205,111.071 125.372,111.738 126.5,112.5C 124.653,113.83 123.153,113.497 122,111.5C 120.681,113.25 120.181,115.25 120.5,117.5C 124.876,117.909 129.21,118.575 133.5,119.5C 133.643,115.796 132.643,112.463 130.5,109.5C 131,107.5 131.5,105.5 132,103.5C 132.333,104.167 132.667,104.833 133,105.5C 133.934,104.142 134.768,102.808 135.5,101.5C 134.353,108.862 134.353,116.196 135.5,123.5C 134.5,123.5 133.5,123.5 132.5,123.5C 132.162,126.011 132.162,128.345 132.5,130.5C 131.272,132.321 129.606,133.321 127.5,133.5C 127.5,132.5 127.5,131.5 127.5,130.5C 121.5,130.5 115.5,130.5 109.5,130.5C 109.827,125.786 109.493,121.12 108.5,116.5C 101.887,121.414 94.8865,122.248 87.5,119C 85.9512,117.786 84.7845,116.286 84,114.5C 83.1816,117.227 83.3483,119.894 84.5,122.5C 88.0081,124.128 91.6747,125.294 95.5,126C 92.6353,126.183 89.9686,126.683 87.5,127.5C 84.7026,127.967 83.3692,129.633 83.5,132.5C 82.8826,132.611 82.3826,132.944 82,133.5C 81.7978,131.744 81.2978,130.078 80.5,128.5C 79.8076,129.025 79.3076,129.692 79,130.5C 77.5167,125.177 76.35,125.177 75.5,130.5C 73.5992,130.433 71.7659,130.767 70,131.5C 68.2785,131.389 68.1118,130.889 69.5,130C 67.6183,129.802 65.9516,129.302 64.5,128.5C 66.8568,128.663 69.1902,128.497 71.5,128C 79.3227,124.025 81.9893,117.858 79.5,109.5C 78.9278,107.745 78.0945,106.078 77,104.5C 72.2259,102.251 69.7259,98.5841 69.5,93.5C 70.8276,89.746 73.4942,88.5793 77.5,90C 79.3036,91.8122 80.3036,91.6456 80.5,89.5C 82.0739,87.8984 82.7406,85.8984 82.5,83.5C 82.5,80.8333 82.5,78.1667 82.5,75.5C 83.8333,75.5 85.1667,75.5 86.5,75.5C 85.3995,76.6049 84.7329,77.9382 84.5,79.5C 83.5119,84.6405 83.1786,89.9738 83.5,95.5C 84.675,95.719 85.675,95.3857 86.5,94.5C 87.709,92.0592 89.3757,90.0592 91.5,88.5C 92.6049,87.3995 93.9382,86.7329 95.5,86.5C 96.4525,84.39 98.1192,83.2233 100.5,83C 103.817,82.5017 107.15,82.335 110.5,82.5C 110.5,77.1667 110.5,71.8333 110.5,66.5C 105.213,67.3105 100.213,68.9772 95.5,71.5C 97.513,69.6348 99.8464,67.9681 102.5,66.5C 105.428,65.5159 108.428,65.1826 111.5,65.5C 110.919,72.0614 111.752,78.3947 114,84.5C 115.589,82.4344 117.422,80.7677 119.5,79.5C 121.175,79.8684 122.175,80.8684 122.5,82.5 Z"/></g>
<g><path style="opacity:1" fill="#7bb9df" d="M 109.5,130.5 C 107.055,131.702 104.722,131.369 102.5,129.5C 101.824,130.602 101.158,131.602 100.5,132.5C 100.912,130.027 99.9118,128.694 97.5,128.5C 97.1583,127.662 96.4916,127.328 95.5,127.5C 92.8333,127.5 90.1667,127.5 87.5,127.5C 89.9686,126.683 92.6353,126.183 95.5,126C 91.6747,125.294 88.0081,124.128 84.5,122.5C 83.3483,119.894 83.1816,117.227 84,114.5C 84.7845,116.286 85.9512,117.786 87.5,119C 94.8865,122.248 101.887,121.414 108.5,116.5C 109.493,121.12 109.827,125.786 109.5,130.5 Z"/></g>
<g><path style="opacity:1" fill="#6889b4" d="M 119.5,116.5 C 119.5,117.833 119.5,119.167 119.5,120.5C 123.5,120.5 127.5,120.5 131.5,120.5C 131.802,123.059 131.468,125.393 130.5,127.5C 130.5,125.5 130.5,123.5 130.5,121.5C 126.5,121.5 122.5,121.5 118.5,121.5C 118.216,119.585 118.549,117.919 119.5,116.5 Z"/></g>
<g><path style="opacity:1" fill="#96bbd4" d="M 104.5,116.5 C 104.75,115.078 105.583,114.078 107,113.5C 107.213,105.631 107.713,97.7976 108.5,90C 108.265,89.1268 107.931,88.2935 107.5,87.5C 104.232,86.513 100.898,86.1796 97.5,86.5C 101.355,83.9645 105.688,82.9645 110.5,83.5C 110.666,93.5056 110.5,103.506 110,113.5C 108.259,114.758 106.426,115.758 104.5,116.5 Z"/></g>
<g><path style="opacity:1" fill="#78b9e0" d="M 95.5,86.5 C 96.1667,86.5 96.8333,86.5 97.5,86.5C 100.898,86.1796 104.232,86.513 107.5,87.5C 107.931,88.2935 108.265,89.1268 108.5,90C 107.713,97.7976 107.213,105.631 107,113.5C 105.583,114.078 104.75,115.078 104.5,116.5C 101.456,118.011 98.1224,118.678 94.5,118.5C 95.5736,117.115 96.9069,115.949 98.5,115C 96.6241,113.983 94.6241,113.149 92.5,112.5C 94.396,111.534 96.396,111.201 98.5,111.5C 98.8097,105.242 98.4764,99.0758 97.5,93C 100.244,89.5384 99.2442,88.0384 94.5,88.5C 94.8333,87.8333 95.1667,87.1667 95.5,86.5 Z"/></g>
<g><path style="opacity:1" fill="#54b8e5" d="M 94.5,88.5 C 99.2442,88.0384 100.244,89.5384 97.5,93C 98.4764,99.0758 98.8097,105.242 98.5,111.5C 96.396,111.201 94.396,111.534 92.5,112.5C 94.6241,113.149 96.6241,113.983 98.5,115C 96.9069,115.949 95.5736,117.115 94.5,118.5C 87.6009,117.078 84.2676,112.745 84.5,105.5C 85.3348,98.3388 88.6681,92.6721 94.5,88.5 Z"/></g>
<g><path style="opacity:1" fill="#0a4aa9" d="M 95.5,127.5 C 96.4916,127.328 97.1583,127.662 97.5,128.5C 97.7135,130.144 97.3802,131.644 96.5,133C 93.1667,133.667 89.8333,133.667 86.5,133C 85.1667,131.667 85.1667,130.333 86.5,129C 89.0472,128.34 91.5472,128.507 94,129.5C 95.0299,129.164 95.5299,128.497 95.5,127.5 Z"/></g>
<g><path style="opacity:1" fill="#1c4986" d="M 87.5,127.5 C 90.1667,127.5 92.8333,127.5 95.5,127.5C 95.5299,128.497 95.0299,129.164 94,129.5C 91.5472,128.507 89.0472,128.34 86.5,129C 85.1667,130.333 85.1667,131.667 86.5,133C 89.8333,133.667 93.1667,133.667 96.5,133C 97.3802,131.644 97.7135,130.144 97.5,128.5C 99.9118,128.694 100.912,130.027 100.5,132.5C 94.7699,135.121 89.1033,135.121 83.5,132.5C 83.3692,129.633 84.7026,127.967 87.5,127.5 Z"/></g>
<g><path style="opacity:1" fill="#1d1b1d" d="M 158.5,143.5 C 156.454,144.965 154.62,144.632 153,142.5C 151.996,139.007 152.496,135.841 154.5,133C 155.833,132.333 157.167,132.333 158.5,133C 153.885,134.077 152.385,136.91 154,141.5C 155.11,143.037 156.61,143.703 158.5,143.5 Z"/></g>
<g><path style="opacity:1" fill="#1a1b1b" d="M 204.5,135.5 C 205.675,135.281 206.675,135.614 207.5,136.5C 205.933,138.896 205.1,141.563 205,144.5C 204.502,141.518 204.335,138.518 204.5,135.5 Z"/></g>
<g><path style="opacity:1" fill="#4f4e4d" d="M 168.5,135.5 C 171.672,135.928 174.672,136.095 177.5,136C 178.783,138.795 178.783,141.628 177.5,144.5C 176.167,135.167 174.833,135.167 173.5,144.5C 172.167,135.167 170.833,135.167 169.5,144.5C 168.516,141.572 168.183,138.572 168.5,135.5 Z"/></g>
<g><path style="opacity:1" fill="#222321" d="M 190.5,142.5 C 191.338,142.842 191.672,143.508 191.5,144.5C 189.856,144.714 188.356,144.38 187,143.5C 186.333,140.833 186.333,138.167 187,135.5C 187.333,137.833 187.667,140.167 188,142.5C 188.977,143.774 189.811,143.774 190.5,142.5 Z"/></g>
<g><path style="opacity:1" fill="#202122" d="M 198.5,143.5 C 197.186,141.105 197.186,138.605 198.5,136C 201.838,135.5 203.505,137 203.5,140.5C 201.833,140.5 200.167,140.5 198.5,140.5C 198.5,141.5 198.5,142.5 198.5,143.5 Z"/></g>
<g><path style="opacity:1" fill="#e2e7e9" d="M 198.5,137.5 C 199.675,137.281 200.675,137.614 201.5,138.5C 199.948,139.798 198.948,139.465 198.5,137.5 Z"/></g>
<g><path style="opacity:1" fill="#5a5959" d="M 191.5,144.5 C 191.672,143.508 191.338,142.842 190.5,142.5C 190.192,140.076 190.526,137.743 191.5,135.5C 192.803,138.645 192.803,141.645 191.5,144.5 Z"/></g>
<g><path style="opacity:1" fill="#3e3d3d" d="M 194.5,133.5 C 195.198,136.897 195.865,140.397 196.5,144C 195.551,144.617 194.718,144.451 194,143.5C 193.341,140.112 193.508,136.779 194.5,133.5 Z"/></g>
<g><path style="opacity:1" fill="#2b2828" d="M 158.5,143.5 C 158.461,142.244 158.961,141.244 160,140.5C 160.585,141.998 160.085,142.998 158.5,143.5 Z"/></g>
<g><path style="opacity:1" fill="#212120" d="M 184.5,142.5 C 183.817,144.176 182.483,144.843 180.5,144.5C 180.657,145.873 180.49,147.207 180,148.5C 179.833,146.5 179.667,144.5 179.5,142.5C 179.59,140.036 180.257,137.87 181.5,136C 182.996,135.493 184.163,135.993 185,137.5C 185.78,139.387 185.613,141.054 184.5,142.5 Z"/></g>
<g><path style="opacity:1" fill="#dadad7" d="M 184.5,142.5 C 183.312,143.684 182.145,143.684 181,142.5C 180.506,140.866 180.34,139.199 180.5,137.5C 183.91,137.384 185.244,139.05 184.5,142.5 Z"/></g>
<g><path style="opacity:1" fill="#262525" d="M 163.5,135.5 C 166.272,135.627 167.605,137.127 167.5,140C 167.623,144.26 165.79,145.426 162,143.5C 161.109,140.502 161.609,137.836 163.5,135.5 Z"/></g>
<g><path style="opacity:1" fill="#ecebec" d="M 163.5,137.5 C 165.484,137.484 166.484,138.484 166.5,140.5C 165.167,144.5 163.833,144.5 162.5,140.5C 162.685,139.416 163.018,138.416 163.5,137.5 Z"/></g>
<g><path style="opacity:1" fill="#292828" d="M 198.5,143.5 C 200.109,143.094 201.443,143.094 202.5,143.5C 201.042,144.782 199.708,144.782 198.5,143.5 Z"/></g>
</svg>
