<?xml version="1.0" encoding="UTF-8"?>
<!DOCTYPE svg PUBLIC "-//W3C//DTD SVG 1.1//EN" "http://www.w3.org/Graphics/SVG/1.1/DTD/svg11.dtd">
<svg xmlns="http://www.w3.org/2000/svg" version="1.1" width="215px" height="215px" style="shape-rendering:geometricPrecision; text-rendering:geometricPrecision; image-rendering:optimizeQuality; fill-rule:evenodd; clip-rule:evenodd" xmlns:xlink="http://www.w3.org/1999/xlink">
<g><path style="opacity:0.987" fill="#fdfefe" d="M 93.5,-0.5 C 102.5,-0.5 111.5,-0.5 120.5,-0.5C 163.323,7.01001 192.823,31.01 209,71.5C 210.31,75.0704 211.143,78.737 211.5,82.5C 206.167,82.5 200.833,82.5 195.5,82.5C 193.906,85.0609 192.906,88.0609 192.5,91.5C 191.893,91.3764 191.56,91.0431 191.5,90.5C 191.5,88.5 191.5,86.5 191.5,84.5C 191.5,83.8333 191.5,83.1667 191.5,82.5C 178.717,82.0286 165.884,81.0286 153,79.5C 152.218,83.8406 150.884,86.5072 149,87.5C 147.66,84.7981 146.327,82.1315 145,79.5C 144.517,80.448 144.351,81.448 144.5,82.5C 143.5,82.5 142.5,82.5 141.5,82.5C 141.5,81.5 141.5,80.5 141.5,79.5C 139.019,79.3234 137.186,80.3234 136,82.5C 136.046,85.8004 136.212,89.1337 136.5,92.5C 136.802,95.0593 136.468,97.3926 135.5,99.5C 133.267,105.851 132.267,112.518 132.5,119.5C 128.812,118.828 125.145,117.995 121.5,117C 120.061,114.695 120.561,112.862 123,111.5C 123.253,106.537 124.087,101.704 125.5,97C 122.586,93.0055 122.919,89.3388 126.5,86C 125.186,85.015 124.186,83.8484 123.5,82.5C 121.5,82.5 119.5,82.5 117.5,82.5C 116.132,81.6937 114.799,80.6937 113.5,79.5C 112.735,80.6119 111.735,81.2786 110.5,81.5C 110.5,76.5 110.5,71.5 110.5,66.5C 108.139,66.6741 105.806,67.0074 103.5,67.5C 99.3225,69.1133 94.9892,70.1133 90.5,70.5C 90.5,71.5 90.5,72.5 90.5,73.5C 87.8333,74.1667 85.1667,74.8333 82.5,75.5C 82.5,78.1667 82.5,80.8333 82.5,83.5C 65.8098,80.3581 59.6432,87.0248 64,103.5C 66.7028,106.371 69.5361,109.038 72.5,111.5C 73.9349,121.206 70.1016,123.873 61,119.5C 58.8659,121.287 58.0325,123.62 58.5,126.5C 57.71,125.391 57.21,124.058 57,122.5C 56.3292,121.748 55.4959,121.414 54.5,121.5C 55.5396,117.22 55.7062,112.887 55,108.5C 54.2155,106.714 53.0488,105.214 51.5,104C 57.849,98.915 59.0157,92.7483 55,85.5C 50.2191,82.6374 45.0524,81.804 39.5,83C 38.3759,83.8388 37.7092,85.0055 37.5,86.5C 35.4988,100.511 33.4988,114.511 31.5,128.5C 30.1667,127.167 28.8333,127.167 27.5,128.5C 26.3755,116.173 25.3755,103.839 24.5,91.5C 24.5,88.5 24.5,85.5 24.5,82.5C 20.9878,81.9455 17.9878,82.6122 15.5,84.5C 10.6889,97.6041 5.68892,110.604 0.5,123.5C 0.737305,122.209 0.403972,121.209 -0.5,120.5C -0.5,111.5 -0.5,102.5 -0.5,93.5C 9.83333,41.1667 41.1667,9.83333 93.5,-0.5 Z"/></g>
<g><path style="opacity:1" fill="#82badf" d="M 110.5,81.5 C 106.273,82.2011 101.94,83.0344 97.5,84C 96.6195,84.7083 95.9528,85.5416 95.5,86.5C 93.9382,86.7329 92.6049,87.3995 91.5,88.5C 91.2965,86.6096 91.9632,85.1096 93.5,84C 95.1691,82.331 97.1691,81.4977 99.5,81.5C 99.6567,80.1266 99.49,78.7932 99,77.5C 97.8668,79.2112 96.3668,79.7112 94.5,79C 95.4231,76.9592 95.7564,74.7925 95.5,72.5C 98.1667,70.8333 100.833,69.1667 103.5,67.5C 105.806,67.0074 108.139,66.6741 110.5,66.5C 110.5,71.5 110.5,76.5 110.5,81.5 Z"/></g>
<g><path style="opacity:1" fill="#6a8bb2" d="M 24.5,91.5 C 23.5269,89.0521 23.1936,86.3854 23.5,83.5C 20.7212,83.2786 18.0545,83.612 15.5,84.5C 17.9878,82.6122 20.9878,81.9455 24.5,82.5C 24.5,85.5 24.5,88.5 24.5,91.5 Z"/></g>
<g><path style="opacity:1" fill="#4ab5e3" d="M 95.5,72.5 C 95.7564,74.7925 95.4231,76.9592 94.5,79C 96.3668,79.7112 97.8668,79.2112 99,77.5C 99.49,78.7932 99.6567,80.1266 99.5,81.5C 97.1691,81.4977 95.1691,82.331 93.5,84C 91.9632,85.1096 91.2965,86.6096 91.5,88.5C 89.5096,90.1634 87.843,92.1634 86.5,94.5C 85.675,95.3857 84.675,95.719 83.5,95.5C 83.0899,89.3792 83.5899,83.3792 85,77.5C 88.172,75.1638 91.672,73.4972 95.5,72.5 Z"/></g>
<g><path style="opacity:1" fill="#1b4c95" d="M 82.5,83.5 C 82.5402,86.4245 81.7068,89.0912 80,91.5C 71.9439,87.2294 68.6106,89.5627 70,98.5C 71.045,99.3734 71.8783,100.373 72.5,101.5C 70.3806,99.9125 68.714,100.246 67.5,102.5C 68.2822,105.076 69.7822,107.076 72,108.5C 72.4828,109.448 72.6495,110.448 72.5,111.5C 69.5361,109.038 66.7028,106.371 64,103.5C 59.6432,87.0248 65.8098,80.3581 82.5,83.5 Z"/></g>
<g><path style="opacity:1" fill="#78a1d6" d="M 118.5,92.5 C 119.634,94.9664 119.801,97.633 119,100.5C 118.95,102.744 118.117,104.411 116.5,105.5C 117.36,101.566 117.693,97.5662 117.5,93.5C 118.167,93.5 118.5,93.1667 118.5,92.5 Z"/></g>
<g><path style="opacity:1" fill="#f4f8f9" d="M 191.5,82.5 C 183.167,82.5 174.833,82.5 166.5,82.5C 166.5,85.1667 166.5,87.8333 166.5,90.5C 169.167,90.5 171.833,90.5 174.5,90.5C 173.649,102.231 172.316,113.898 170.5,125.5C 169.596,126.209 169.263,127.209 169.5,128.5C 171.735,128.795 173.735,128.461 175.5,127.5C 178.043,115.379 180.043,103.045 181.5,90.5C 184.833,90.5 188.167,90.5 191.5,90.5C 191.56,91.0431 191.893,91.3764 192.5,91.5C 192.906,88.0609 193.906,85.0609 195.5,82.5C 193.503,96.4716 191.503,110.472 189.5,124.5C 188.566,125.568 188.232,126.901 188.5,128.5C 195.354,128.824 202.021,128.491 208.5,127.5C 209.468,125.393 209.802,123.059 209.5,120.5C 205.167,120.5 200.833,120.5 196.5,120.5C 196.833,117.167 197.167,113.833 197.5,110.5C 201.717,108.964 206.05,107.964 210.5,107.5C 210.5,106.167 210.5,104.833 210.5,103.5C 211.404,102.791 211.737,101.791 211.5,100.5C 207.833,100.5 204.167,100.5 200.5,100.5C 200.5,97.1667 200.5,93.8333 200.5,90.5C 204.833,90.5 209.167,90.5 213.5,90.5C 213.263,91.791 213.596,92.791 214.5,93.5C 214.5,102.5 214.5,111.5 214.5,120.5C 212.922,129.809 210.255,138.809 206.5,147.5C 205.167,146.167 203.833,144.833 202.5,143.5C 201.472,143.074 200.139,143.074 198.5,143.5C 198.5,142.5 198.5,141.5 198.5,140.5C 200.167,140.5 201.833,140.5 203.5,140.5C 203.505,137 201.838,135.5 198.5,136C 197.565,138.381 197.232,140.881 197.5,143.5C 197.167,143.5 196.833,143.5 196.5,143.5C 195.679,140.359 195.179,137.025 195,133.5C 193.872,135.345 193.372,137.345 193.5,139.5C 193.167,139.5 192.833,139.5 192.5,139.5C 192.762,138.022 192.429,136.689 191.5,135.5C 189.948,145.973 188.448,145.973 187,135.5C 186.333,138.167 186.333,140.833 187,143.5C 188.011,144.337 189.178,144.67 190.5,144.5C 188.392,146.677 186.392,146.677 184.5,144.5C 184.5,143.833 184.5,143.167 184.5,142.5C 186.121,139.633 185.454,137.3 182.5,135.5C 181.833,135.833 181.167,136.167 180.5,136.5C 179.509,140.445 179.176,144.445 179.5,148.5C 178.512,147.205 177.512,145.872 176.5,144.5C 177.748,143.666 178.415,142.333 178.5,140.5C 178.333,139.167 178.167,137.833 178,136.5C 175.052,136.253 171.885,135.92 168.5,135.5C 168.5,138.167 168.5,140.833 168.5,143.5C 168.167,143.5 167.833,143.5 167.5,143.5C 166.411,145.117 164.744,145.95 162.5,146C 163.696,146.654 163.696,147.154 162.5,147.5C 161.808,146.975 161.308,146.308 161,145.5C 160.667,145.833 160.333,146.167 160,146.5C 158.378,145.901 156.878,145.234 155.5,144.5C 156.791,144.737 157.791,144.404 158.5,143.5C 153.849,142.826 152.349,140.159 154,135.5C 155.171,134.107 156.671,133.273 158.5,133C 156.16,132.252 154.16,132.752 152.5,134.5C 149.374,131.901 146.207,131.901 143,134.5C 141.057,132.849 139.557,130.849 138.5,128.5C 136.929,126.585 134.929,125.585 132.5,125.5C 132.737,126.791 132.404,127.791 131.5,128.5C 131.5,125.833 131.5,123.167 131.5,120.5C 127.5,120.5 123.5,120.5 119.5,120.5C 119.5,119.167 119.5,117.833 119.5,116.5C 120.905,105.187 122.239,93.8538 123.5,82.5C 124.186,83.8484 125.186,85.015 126.5,86C 122.919,89.3388 122.586,93.0055 125.5,97C 124.087,101.704 123.253,106.537 123,111.5C 120.561,112.862 120.061,114.695 121.5,117C 125.145,117.995 128.812,118.828 132.5,119.5C 132.267,112.518 133.267,105.851 135.5,99.5C 134.715,106.823 134.548,114.156 135,121.5C 135.697,123.584 136.864,125.251 138.5,126.5C 138.918,127.222 139.584,127.722 140.5,128C 147.735,129.927 153.235,127.76 157,121.5C 159.043,112.244 160.543,102.91 161.5,93.5C 163.082,90.1244 163.749,86.4578 163.5,82.5C 161.5,82.5 159.5,82.5 157.5,82.5C 156.833,86.8333 156.167,91.1667 155.5,95.5C 154.407,103.237 152.907,110.904 151,118.5C 148.029,122.092 144.696,122.425 141,119.5C 141.165,111.5 141.665,103.5 142.5,95.5C 143.989,91.7643 144.656,87.7643 144.5,83.5C 142.396,83.2011 140.396,83.5344 138.5,84.5C 137.92,87.3106 137.254,89.9773 136.5,92.5C 136.212,89.1337 136.046,85.8004 136,82.5C 137.186,80.3234 139.019,79.3234 141.5,79.5C 141.5,80.5 141.5,81.5 141.5,82.5C 142.5,82.5 143.5,82.5 144.5,82.5C 144.351,81.448 144.517,80.448 145,79.5C 146.327,82.1315 147.66,84.7981 149,87.5C 150.884,86.5072 152.218,83.8406 153,79.5C 165.884,81.0286 178.717,82.0286 191.5,82.5 Z"/></g>
<g><path style="opacity:1" fill="#184d9a" d="M 161.5,93.5 C 160.543,102.91 159.043,112.244 157,121.5C 153.235,127.76 147.735,129.927 140.5,128C 139.584,127.722 138.918,127.222 138.5,126.5C 135.194,114.681 136.194,103.348 141.5,92.5C 142.386,93.325 142.719,94.325 142.5,95.5C 141.665,103.5 141.165,111.5 141,119.5C 144.696,122.425 148.029,122.092 151,118.5C 152.907,110.904 154.407,103.237 155.5,95.5C 157.239,92.2522 158.406,88.5856 159,84.5C 159.414,84.0426 159.914,83.7093 160.5,83.5C 161.487,86.7683 161.82,90.1016 161.5,93.5 Z"/></g>
<g><path style="opacity:1" fill="#7895c1" d="M 191.5,84.5 C 191.5,86.5 191.5,88.5 191.5,90.5C 188.167,90.5 184.833,90.5 181.5,90.5C 181.5,89.8333 181.833,89.5 182.5,89.5C 185.167,89.5 187.833,89.5 190.5,89.5C 190.216,87.5853 190.549,85.9187 191.5,84.5 Z"/></g>
<g><path style="opacity:1" fill="#265496" d="M 142.5,95.5 C 142.719,94.325 142.386,93.325 141.5,92.5C 136.194,103.348 135.194,114.681 138.5,126.5C 136.864,125.251 135.697,123.584 135,121.5C 134.548,114.156 134.715,106.823 135.5,99.5C 136.468,97.3926 136.802,95.0593 136.5,92.5C 137.254,89.9773 137.92,87.3106 138.5,84.5C 140.396,83.5344 142.396,83.2011 144.5,83.5C 144.656,87.7643 143.989,91.7643 142.5,95.5 Z"/></g>
<g><path style="opacity:1" fill="#3f6192" d="M 161.5,93.5 C 161.82,90.1016 161.487,86.7683 160.5,83.5C 159.914,83.7093 159.414,84.0426 159,84.5C 158.406,88.5856 157.239,92.2522 155.5,95.5C 156.167,91.1667 156.833,86.8333 157.5,82.5C 159.5,82.5 161.5,82.5 163.5,82.5C 163.749,86.4578 163.082,90.1244 161.5,93.5 Z"/></g>
<g><path style="opacity:1" fill="#084da3" d="M 182.5,89.5 C 181.833,89.5 181.5,89.8333 181.5,90.5C 180.504,90.4142 179.671,90.7476 179,91.5C 179.036,99.4529 177.703,107.12 175,114.5C 175.034,105.823 175.534,97.1565 176.5,88.5C 173.5,88.5 170.5,88.5 167.5,88.5C 167.5,87.1667 167.5,85.8333 167.5,84.5C 173.557,84.639 179.557,85.3057 185.5,86.5C 184.66,87.735 183.66,88.735 182.5,89.5 Z"/></g>
<g><path style="opacity:1" fill="#274888" d="M 117.5,93.5 C 117.693,97.5662 117.36,101.566 116.5,105.5C 114.899,106.643 114.233,105.976 114.5,103.5C 115.141,99.4598 115.975,95.4598 117,91.5C 117.464,92.0944 117.631,92.7611 117.5,93.5 Z"/></g>
<g><path style="opacity:1" fill="#1e4f99" d="M 195.5,82.5 C 200.833,82.5 206.167,82.5 211.5,82.5C 212.768,84.9052 213.435,87.5718 213.5,90.5C 209.167,90.5 204.833,90.5 200.5,90.5C 199.518,93.9619 199.185,97.6286 199.5,101.5C 203.649,100.92 207.316,101.586 210.5,103.5C 210.5,104.833 210.5,106.167 210.5,107.5C 206.167,107.5 201.833,107.5 197.5,107.5C 197.5,108.5 197.5,109.5 197.5,110.5C 197.167,113.833 196.833,117.167 196.5,120.5C 196.5,120.833 196.5,121.167 196.5,121.5C 192.062,120.425 190.062,122.092 190.5,126.5C 196.167,126.5 201.833,126.5 207.5,126.5C 207.5,125.167 207.5,123.833 207.5,122.5C 203.958,122.813 200.625,122.479 197.5,121.5C 201.167,121.5 204.833,121.5 208.5,121.5C 208.5,123.5 208.5,125.5 208.5,127.5C 202.167,127.5 195.833,127.5 189.5,127.5C 189.5,126.5 189.5,125.5 189.5,124.5C 191.503,110.472 193.503,96.4716 195.5,82.5 Z"/></g>
<g><path style="opacity:1" fill="#a6c2e3" d="M 200.5,90.5 C 200.5,93.8333 200.5,97.1667 200.5,100.5C 204.167,100.5 207.833,100.5 211.5,100.5C 211.737,101.791 211.404,102.791 210.5,103.5C 207.316,101.586 203.649,100.92 199.5,101.5C 199.185,97.6286 199.518,93.9619 200.5,90.5 Z"/></g>
<g><path style="opacity:1" fill="#1c4e9a" d="M 24.5,91.5 C 25.3755,103.839 26.3755,116.173 27.5,128.5C 25.5328,128.739 23.6995,128.406 22,127.5C 21.5012,123.514 21.3345,119.514 21.5,115.5C 17.8183,115.335 14.1516,115.501 10.5,116C 8.31958,119.886 6.98625,124.053 6.5,128.5C 4.83333,128.5 3.16667,128.5 1.5,128.5C 0.699293,126.958 0.36596,125.292 0.5,123.5C 5.68892,110.604 10.6889,97.6041 15.5,84.5C 18.0545,83.612 20.7212,83.2786 23.5,83.5C 23.1936,86.3854 23.5269,89.0521 24.5,91.5 Z"/></g>
<g><path style="opacity:1" fill="#e4f4fb" d="M 18.5,91.5 C 19.4889,96.9753 19.8222,102.642 19.5,108.5C 17.5,108.5 15.5,108.5 13.5,108.5C 14.5648,102.641 16.2315,96.974 18.5,91.5 Z"/></g>
<g><path style="opacity:1" fill="#094ca2" d="M 72.5,101.5 C 73.5,102.167 74.5,102.833 75.5,103.5C 78.2225,109.096 79.2225,115.096 78.5,121.5C 78.1667,122.167 77.8333,122.833 77.5,123.5C 76.4168,123.539 75.4168,123.873 74.5,124.5C 74.1667,123.833 73.8333,123.167 73.5,122.5C 74.0152,120.364 74.3486,118.197 74.5,116C 74.4313,114.014 73.7647,112.514 72.5,111.5C 72.6495,110.448 72.4828,109.448 72,108.5C 69.7822,107.076 68.2822,105.076 67.5,102.5C 68.714,100.246 70.3806,99.9125 72.5,101.5 Z"/></g>
<g><path style="opacity:1" fill="#7097c5" d="M 210.5,107.5 C 206.05,107.964 201.717,108.964 197.5,110.5C 197.5,109.5 197.5,108.5 197.5,107.5C 201.833,107.5 206.167,107.5 210.5,107.5 Z"/></g>
<g><path style="opacity:1" fill="#e8f7fb" d="M 103.5,67.5 C 100.833,69.1667 98.1667,70.8333 95.5,72.5C 91.672,73.4972 88.172,75.1638 85,77.5C 83.5899,83.3792 83.0899,89.3792 83.5,95.5C 84.675,95.719 85.675,95.3857 86.5,94.5C 87.843,92.1634 89.5096,90.1634 91.5,88.5C 92.6049,87.3995 93.9382,86.7329 95.5,86.5C 95.9528,85.5416 96.6195,84.7083 97.5,84C 101.94,83.0344 106.273,82.2011 110.5,81.5C 111.735,81.2786 112.735,80.6119 113.5,79.5C 114.799,80.6937 116.132,81.6937 117.5,82.5C 117.46,85.8806 117.793,89.2139 118.5,92.5C 118.5,93.1667 118.167,93.5 117.5,93.5C 117.631,92.7611 117.464,92.0944 117,91.5C 115.975,95.4598 115.141,99.4598 114.5,103.5C 114.233,105.976 114.899,106.643 116.5,105.5C 113.006,112.308 111.34,119.641 111.5,127.5C 111.5,127.833 111.5,128.167 111.5,128.5C 110.833,128.5 110.167,128.5 109.5,128.5C 109.824,124.445 109.491,120.445 108.5,116.5C 101.981,121.857 94.9808,122.69 87.5,119C 85.9512,117.786 84.7845,116.286 84,114.5C 83.1816,117.227 83.3483,119.894 84.5,122.5C 88.1667,123.667 91.8333,124.833 95.5,126C 92.6353,126.183 89.9686,126.683 87.5,127.5C 83.2871,128.636 82.6204,130.803 85.5,134C 90.7198,134.983 95.7198,134.483 100.5,132.5C 100.719,133.675 100.386,134.675 99.5,135.5C 95.1016,137.487 90.6016,137.82 86,136.5C 84.7005,134.541 82.8671,133.374 80.5,133C 81.0059,130.956 81.3393,128.956 81.5,127C 80.9915,125.831 80.1581,124.998 79,124.5C 77.2828,125.988 76.1161,127.821 75.5,130C 73.1788,130.837 70.8454,131.17 68.5,131C 68.8333,130.667 69.1667,130.333 69.5,130C 67.6183,129.802 65.9516,129.302 64.5,128.5C 69.9454,129.357 74.2787,127.691 77.5,123.5C 77.8333,122.833 78.1667,122.167 78.5,121.5C 79.2216,121.082 79.7216,120.416 80,119.5C 81.6841,113.115 80.1841,107.781 75.5,103.5C 74.5,102.833 73.5,102.167 72.5,101.5C 71.8783,100.373 71.045,99.3734 70,98.5C 68.6106,89.5627 71.9439,87.2294 80,91.5C 81.7068,89.0912 82.5402,86.4245 82.5,83.5C 82.5,80.8333 82.5,78.1667 82.5,75.5C 85.1667,74.8333 87.8333,74.1667 90.5,73.5C 90.5,72.5 90.5,71.5 90.5,70.5C 94.9892,70.1133 99.3225,69.1133 103.5,67.5 Z"/></g>
<g><path style="opacity:1" fill="#4db6e3" d="M 94.5,88.5 C 96.7638,89.2186 99.0971,89.552 101.5,89.5C 101.778,91.3464 101.111,92.6798 99.5,93.5C 99.0765,100.015 98.0765,106.349 96.5,112.5C 97.5,113.167 98.5,113.833 99.5,114.5C 97.2546,116.623 94.5879,117.623 91.5,117.5C 86.6453,115.143 84.312,111.143 84.5,105.5C 85.3348,98.3388 88.6681,92.6721 94.5,88.5 Z"/></g>
<g><path style="opacity:1" fill="#82badf" d="M 91.5,117.5 C 94.5879,117.623 97.2546,116.623 99.5,114.5C 98.5,113.833 97.5,113.167 96.5,112.5C 98.0765,106.349 99.0765,100.015 99.5,93.5C 101.111,92.6798 101.778,91.3464 101.5,89.5C 99.0971,89.552 96.7638,89.2186 94.5,88.5C 94.8333,87.8333 95.1667,87.1667 95.5,86.5C 100.198,84.1193 105.198,83.1193 110.5,83.5C 110.666,93.5056 110.5,103.506 110,113.5C 104.464,118.309 98.297,119.643 91.5,117.5 Z"/></g>
<g><path style="opacity:1" fill="#1a4d95" d="M 54.5,121.5 C 53.0226,123.807 51.0226,125.64 48.5,127C 42.9116,128.289 37.2449,128.789 31.5,128.5C 33.4988,114.511 35.4988,100.511 37.5,86.5C 37.7092,85.0055 38.3759,83.8388 39.5,83C 45.0524,81.804 50.2191,82.6374 55,85.5C 59.0157,92.7483 57.849,98.915 51.5,104C 53.0488,105.214 54.2155,106.714 55,108.5C 55.7062,112.887 55.5396,117.22 54.5,121.5 Z"/></g>
<g><path style="opacity:1" fill="#f3f9fa" d="M 40.5,107.5 C 49.9497,107.946 51.9497,112.112 46.5,120C 44.3225,121.202 41.9892,121.702 39.5,121.5C 39.4372,116.797 39.7705,112.13 40.5,107.5 Z"/></g>
<g><path style="opacity:1" fill="#90baee" d="M 41.5,95.5 C 41.8333,95.5 42.1667,95.5 42.5,95.5C 42.5,97.1667 42.5,98.8333 42.5,100.5C 43.5,100.5 44.5,100.5 45.5,100.5C 44.4324,101.434 43.099,101.768 41.5,101.5C 41.5,99.5 41.5,97.5 41.5,95.5 Z"/></g>
<g><path style="opacity:1" fill="#e8f5f9" d="M 45.5,100.5 C 44.5,100.5 43.5,100.5 42.5,100.5C 42.5,98.8333 42.5,97.1667 42.5,95.5C 42.5,93.5 42.5,91.5 42.5,89.5C 51.0352,88.9619 53.2018,92.2952 49,99.5C 47.9887,100.337 46.8221,100.67 45.5,100.5 Z"/></g>
<g><path style="opacity:1" fill="#084ca4" d="M 41.5,95.5 C 40.039,97.676 39.7057,100.009 40.5,102.5C 39.1588,106.384 38.3255,110.384 38,114.5C 37.4427,112.385 36.6094,110.385 35.5,108.5C 36,107.5 36.5,106.5 37,105.5C 37.4463,98.8108 38.113,92.1442 39,85.5C 43.0785,84.3705 47.2452,84.2039 51.5,85C 52.5171,86.0495 52.6838,87.2161 52,88.5C 48.9269,87.3832 45.7603,87.2165 42.5,88C 41.565,90.3806 41.2317,92.8806 41.5,95.5 Z"/></g>
<g><path style="opacity:1" fill="#375b91" d="M 75.5,103.5 C 80.1841,107.781 81.6841,113.115 80,119.5C 79.7216,120.416 79.2216,121.082 78.5,121.5C 79.2225,115.096 78.2225,109.096 75.5,103.5 Z"/></g>
<g><path style="opacity:1" fill="#265297" d="M 191.5,82.5 C 191.5,83.1667 191.5,83.8333 191.5,84.5C 190.549,85.9187 190.216,87.5853 190.5,89.5C 187.833,89.5 185.167,89.5 182.5,89.5C 183.66,88.735 184.66,87.735 185.5,86.5C 179.557,85.3057 173.557,84.639 167.5,84.5C 167.5,85.8333 167.5,87.1667 167.5,88.5C 170.5,88.5 173.5,88.5 176.5,88.5C 175.534,97.1565 175.034,105.823 175,114.5C 177.703,107.12 179.036,99.4529 179,91.5C 179.671,90.7476 180.504,90.4142 181.5,90.5C 180.043,103.045 178.043,115.379 175.5,127.5C 173.219,127.923 171.552,127.256 170.5,125.5C 172.316,113.898 173.649,102.231 174.5,90.5C 171.833,90.5 169.167,90.5 166.5,90.5C 166.5,87.8333 166.5,85.1667 166.5,82.5C 174.833,82.5 183.167,82.5 191.5,82.5 Z"/></g>
<g><path style="opacity:1" fill="#094ba8" d="M 50.5,109.5 C 51.5,109.5 52.5,109.5 53.5,109.5C 54.1346,112.493 54.3013,115.493 54,118.5C 51.8333,121 49.6667,123.5 47.5,126C 45.5273,126.495 43.5273,126.662 41.5,126.5C 41.5,125.167 41.5,123.833 41.5,122.5C 44.3646,122.945 46.8646,122.278 49,120.5C 50.2367,116.94 50.7367,113.273 50.5,109.5 Z"/></g>
<g><path style="opacity:1" fill="#7594bd" d="M 196.5,121.5 C 196.5,121.167 196.5,120.833 196.5,120.5C 200.833,120.5 205.167,120.5 209.5,120.5C 209.802,123.059 209.468,125.393 208.5,127.5C 208.5,125.5 208.5,123.5 208.5,121.5C 204.833,121.5 201.167,121.5 197.5,121.5C 197.167,121.5 196.833,121.5 196.5,121.5 Z"/></g>
<g><path style="opacity:1" fill="#184b92" d="M 117.5,82.5 C 119.5,82.5 121.5,82.5 123.5,82.5C 122.239,93.8538 120.905,105.187 119.5,116.5C 118.549,117.919 118.216,119.585 118.5,121.5C 122.5,121.5 126.5,121.5 130.5,121.5C 130.5,123.5 130.5,125.5 130.5,127.5C 124.167,127.5 117.833,127.5 111.5,127.5C 111.34,119.641 113.006,112.308 116.5,105.5C 118.117,104.411 118.95,102.744 119,100.5C 119.801,97.633 119.634,94.9664 118.5,92.5C 117.793,89.2139 117.46,85.8806 117.5,82.5 Z"/></g>
<g><path style="opacity:1" fill="#1a4d96" d="M 72.5,111.5 C 73.7647,112.514 74.4313,114.014 74.5,116C 74.3486,118.197 74.0152,120.364 73.5,122.5C 73.8333,123.167 74.1667,123.833 74.5,124.5C 75.4168,123.873 76.4168,123.539 77.5,123.5C 74.2787,127.691 69.9454,129.357 64.5,128.5C 62.2972,128.396 60.2972,127.73 58.5,126.5C 58.0325,123.62 58.8659,121.287 61,119.5C 70.1016,123.873 73.9349,121.206 72.5,111.5 Z"/></g>
<g><path style="opacity:0.988" fill="#fefefe" d="M 27.5,128.5 C 28.8333,127.167 30.1667,127.167 31.5,128.5C 37.2449,128.789 42.9116,128.289 48.5,127C 51.0226,125.64 53.0226,123.807 54.5,121.5C 55.4959,121.414 56.3292,121.748 57,122.5C 57.21,124.058 57.71,125.391 58.5,126.5C 60.2972,127.73 62.2972,128.396 64.5,128.5C 65.9516,129.302 67.6183,129.802 69.5,130C 69.1667,130.333 68.8333,130.667 68.5,131C 70.8454,131.17 73.1788,130.837 75.5,130C 76.1161,127.821 77.2828,125.988 79,124.5C 80.1581,124.998 80.9915,125.831 81.5,127C 81.3393,128.956 81.0059,130.956 80.5,133C 82.8671,133.374 84.7005,134.541 86,136.5C 90.6016,137.82 95.1016,137.487 99.5,135.5C 100.386,134.675 100.719,133.675 100.5,132.5C 100.5,131.5 100.5,130.5 100.5,129.5C 100.56,128.957 100.893,128.624 101.5,128.5C 103.109,129.888 104.942,130.888 107,131.5C 108.749,131.252 109.582,130.252 109.5,128.5C 110.167,128.5 110.833,128.5 111.5,128.5C 118.167,128.5 124.833,128.5 131.5,128.5C 132.404,127.791 132.737,126.791 132.5,125.5C 134.929,125.585 136.929,126.585 138.5,128.5C 139.557,130.849 141.057,132.849 143,134.5C 146.207,131.901 149.374,131.901 152.5,134.5C 152.336,137.187 152.503,139.854 153,142.5C 153.417,143.756 154.25,144.423 155.5,144.5C 156.878,145.234 158.378,145.901 160,146.5C 160.333,146.167 160.667,145.833 161,145.5C 161.308,146.308 161.808,146.975 162.5,147.5C 163.696,147.154 163.696,146.654 162.5,146C 164.744,145.95 166.411,145.117 167.5,143.5C 167.833,143.5 168.167,143.5 168.5,143.5C 168.56,144.043 168.893,144.376 169.5,144.5C 170.833,135.167 172.167,135.167 173.5,144.5C 175.127,135.256 176.127,135.256 176.5,144.5C 177.512,145.872 178.512,147.205 179.5,148.5C 180.434,147.432 180.768,146.099 180.5,144.5C 181.833,144.5 183.167,144.5 184.5,144.5C 186.392,146.677 188.392,146.677 190.5,144.5C 192.256,143.448 192.923,141.781 192.5,139.5C 192.833,139.5 193.167,139.5 193.5,139.5C 193.343,140.873 193.51,142.207 194,143.5C 194.977,144.774 195.811,144.774 196.5,143.5C 196.833,143.5 197.167,143.5 197.5,143.5C 197.833,143.5 198.167,143.5 198.5,143.5C 199.833,144.833 201.167,144.833 202.5,143.5C 203.833,144.833 205.167,146.167 206.5,147.5C 190.114,185.548 161.447,207.881 120.5,214.5C 111.5,214.5 102.5,214.5 93.5,214.5C 44.5197,205.522 13.8531,176.856 1.5,128.5C 3.16667,128.5 4.83333,128.5 6.5,128.5C 6.98625,124.053 8.31958,119.886 10.5,116C 14.1516,115.501 17.8183,115.335 21.5,115.5C 21.3345,119.514 21.5012,123.514 22,127.5C 23.6995,128.406 25.5328,128.739 27.5,128.5 Z"/></g>
<g><path style="opacity:1" fill="#084da2" d="M 196.5,121.5 C 196.833,121.5 197.167,121.5 197.5,121.5C 200.625,122.479 203.958,122.813 207.5,122.5C 207.5,123.833 207.5,125.167 207.5,126.5C 201.833,126.5 196.167,126.5 190.5,126.5C 190.062,122.092 192.062,120.425 196.5,121.5 Z"/></g>
<g><path style="opacity:1" fill="#7fb7dd" d="M 109.5,128.5 C 109.582,130.252 108.749,131.252 107,131.5C 104.942,130.888 103.109,129.888 101.5,128.5C 100.893,128.624 100.56,128.957 100.5,129.5C 96.4044,127.72 92.0711,127.054 87.5,127.5C 89.9686,126.683 92.6353,126.183 95.5,126C 91.8333,124.833 88.1667,123.667 84.5,122.5C 83.3483,119.894 83.1816,117.227 84,114.5C 84.7845,116.286 85.9512,117.786 87.5,119C 94.9808,122.69 101.981,121.857 108.5,116.5C 109.491,120.445 109.824,124.445 109.5,128.5 Z"/></g>
<g><path style="opacity:1" fill="#6e8cb2" d="M 119.5,116.5 C 119.5,117.833 119.5,119.167 119.5,120.5C 123.5,120.5 127.5,120.5 131.5,120.5C 131.5,123.167 131.5,125.833 131.5,128.5C 124.833,128.5 118.167,128.5 111.5,128.5C 111.5,128.167 111.5,127.833 111.5,127.5C 117.833,127.5 124.167,127.5 130.5,127.5C 130.5,125.5 130.5,123.5 130.5,121.5C 126.5,121.5 122.5,121.5 118.5,121.5C 118.216,119.585 118.549,117.919 119.5,116.5 Z"/></g>
<g><path style="opacity:1" fill="#8091b2" d="M 170.5,125.5 C 171.552,127.256 173.219,127.923 175.5,127.5C 173.735,128.461 171.735,128.795 169.5,128.5C 169.263,127.209 169.596,126.209 170.5,125.5 Z"/></g>
<g><path style="opacity:1" fill="#748faf" d="M 189.5,124.5 C 189.5,125.5 189.5,126.5 189.5,127.5C 195.833,127.5 202.167,127.5 208.5,127.5C 202.021,128.491 195.354,128.824 188.5,128.5C 188.232,126.901 188.566,125.568 189.5,124.5 Z"/></g>
<g><path style="opacity:1" fill="#144a96" d="M 87.5,127.5 C 92.0711,127.054 96.4044,127.72 100.5,129.5C 100.5,130.5 100.5,131.5 100.5,132.5C 95.7198,134.483 90.7198,134.983 85.5,134C 82.6204,130.803 83.2871,128.636 87.5,127.5 Z"/></g>
<g><path style="opacity:1" fill="#1d1b1d" d="M 158.5,143.5 C 157.791,144.404 156.791,144.737 155.5,144.5C 154.25,144.423 153.417,143.756 153,142.5C 152.503,139.854 152.336,137.187 152.5,134.5C 154.16,132.752 156.16,132.252 158.5,133C 156.671,133.273 155.171,134.107 154,135.5C 152.349,140.159 153.849,142.826 158.5,143.5 Z"/></g>
<g><path style="opacity:1" fill="#1b1b1b" d="M 204.5,135.5 C 205.675,135.281 206.675,135.614 207.5,136.5C 205.933,138.896 205.1,141.563 205,144.5C 204.502,141.518 204.335,138.518 204.5,135.5 Z"/></g>
<g><path style="opacity:1" fill="#4f4e4d" d="M 176.5,144.5 C 176.127,135.256 175.127,135.256 173.5,144.5C 172.167,135.167 170.833,135.167 169.5,144.5C 168.893,144.376 168.56,144.043 168.5,143.5C 168.5,140.833 168.5,138.167 168.5,135.5C 171.885,135.92 175.052,136.253 178,136.5C 178.167,137.833 178.333,139.167 178.5,140.5C 178.415,142.333 177.748,143.666 176.5,144.5 Z"/></g>
<g><path style="opacity:1" fill="#202122" d="M 198.5,143.5 C 198.167,143.5 197.833,143.5 197.5,143.5C 197.232,140.881 197.565,138.381 198.5,136C 201.838,135.5 203.505,137 203.5,140.5C 201.833,140.5 200.167,140.5 198.5,140.5C 198.5,141.5 198.5,142.5 198.5,143.5 Z"/></g>
<g><path style="opacity:1" fill="#e2e7e8" d="M 198.5,137.5 C 199.675,137.281 200.675,137.614 201.5,138.5C 199.948,139.798 198.948,139.465 198.5,137.5 Z"/></g>
<g><path style="opacity:1" fill="#474746" d="M 192.5,139.5 C 192.923,141.781 192.256,143.448 190.5,144.5C 189.178,144.67 188.011,144.337 187,143.5C 186.333,140.833 186.333,138.167 187,135.5C 188.448,145.973 189.948,145.973 191.5,135.5C 192.429,136.689 192.762,138.022 192.5,139.5 Z"/></g>
<g><path style="opacity:1" fill="#3e3c3d" d="M 196.5,143.5 C 195.811,144.774 194.977,144.774 194,143.5C 193.51,142.207 193.343,140.873 193.5,139.5C 193.372,137.345 193.872,135.345 195,133.5C 195.179,137.025 195.679,140.359 196.5,143.5 Z"/></g>
<g><path style="opacity:1" fill="#2a2828" d="M 158.5,143.5 C 158.461,142.244 158.961,141.244 160,140.5C 160.585,141.998 160.085,142.998 158.5,143.5 Z"/></g>
<g><path style="opacity:1" fill="#212120" d="M 184.5,142.5 C 184.5,143.167 184.5,143.833 184.5,144.5C 183.167,144.5 181.833,144.5 180.5,144.5C 180.768,146.099 180.434,147.432 179.5,148.5C 179.176,144.445 179.509,140.445 180.5,136.5C 181.167,136.167 181.833,135.833 182.5,135.5C 185.454,137.3 186.121,139.633 184.5,142.5 Z"/></g>
<g><path style="opacity:1" fill="#dadad8" d="M 184.5,142.5 C 183.312,143.684 182.145,143.684 181,142.5C 180.506,140.866 180.34,139.199 180.5,137.5C 183.91,137.384 185.244,139.05 184.5,142.5 Z"/></g>
<g><path style="opacity:1" fill="#262525" d="M 167.5,143.5 C 161.918,145.389 160.084,143.389 162,137.5C 163.194,135.475 164.694,135.141 166.5,136.5C 167.474,138.743 167.808,141.076 167.5,143.5 Z"/></g>
<g><path style="opacity:1" fill="#eceaeb" d="M 163.5,137.5 C 165.484,137.484 166.484,138.484 166.5,140.5C 165.167,144.5 163.833,144.5 162.5,140.5C 162.685,139.416 163.018,138.416 163.5,137.5 Z"/></g>
<g><path style="opacity:1" fill="#2a2828" d="M 202.5,143.5 C 201.167,144.833 199.833,144.833 198.5,143.5C 200.139,143.074 201.472,143.074 202.5,143.5 Z"/></g>
</svg>
